#N canvas 225 22 550 624 10;
#X obj 117 71 loadbang;
#N canvas 47 98 877 721 TONEFINDER 1;
#X obj 268 42 loadbang;
#X msg 152 349 start;
#X msg 152 373 stop;
#X obj 151 301 bng 15 250 50 0 empty empty empty 17 7 0 10 -262144
-1 -1;
#X obj 253 328 delay 50;
#X obj 229 424 throw~;
#X obj 229 389 readsf~;
#X obj 381 565 adc~;
#X obj 359 649 writesf~;
#X msg 280 590 start;
#X msg 280 613 stop;
#X obj 256 520 bng 15 250 50 0 empty empty empty 17 7 0 10 -262144
-1 -1;
#X obj 280 520 delay 50;
#X msg 505 257 start;
#X msg 505 281 stop;
#X obj 504 213 bng 15 250 50 0 empty empty empty 17 7 0 10 -262144
-1 -1;
#X obj 606 236 delay 50;
#X obj 582 332 throw~;
#X obj 582 297 readsf~;
#X obj 745 504 adc~;
#X obj 723 588 writesf~;
#X msg 644 529 start;
#X msg 644 552 stop;
#X obj 620 459 bng 15 250 50 0 empty empty empty 17 7 0 10 -262144
-1 -1;
#X obj 644 459 delay 50;
#X msg 151 327 open rec.wav;
#X msg 504 235 open rec1.wav;
#X msg 280 565 open rec.wav;
#X msg 644 504 open rec1.wav;
#X obj 268 73 send startbang;
#X obj 621 437 r startbang;
#X obj 280 498 r startbang;
#X obj 280 543 delay 100;
#X obj 644 482 delay 100;
#X obj 191 590 delay;
#X obj 446 43 inlet;
#X floatatom 446 73 5 1000 30000 0 - - -, f 5;
#X obj 446 99 send recordtime;
#X obj 563 504 r recordtime;
#X obj 191 565 r recordtime;
#X obj 278 424 send recplaydone;
#X obj 631 332 send rec1playdone;
#X obj 113 565 r startbang;
#X obj 26 565 r recplaydone;
#X obj 280 475 r recplaydone;
#X obj 190 636 s recwritedone;
#X obj 151 255 r recwritedone;
#X obj 151 279 delay 100;
#X obj 621 417 r recwritedone;
#X obj 564 528 delay;
#X obj 471 504 r recwritedone;
#X obj 573 41 catch~;
#X obj 573 80 dac~;
#X obj 564 576 s rec1writedone;
#X obj 504 190 r rec1writedone;
#X connect 0 0 29 0;
#X connect 1 0 6 0;
#X connect 2 0 6 0;
#X connect 3 0 25 0;
#X connect 3 0 4 0;
#X connect 4 0 1 0;
#X connect 6 0 5 0;
#X connect 6 1 40 0;
#X connect 7 0 8 0;
#X connect 7 1 8 0;
#X connect 9 0 8 0;
#X connect 10 0 8 0;
#X connect 11 0 12 0;
#X connect 11 0 32 0;
#X connect 12 0 27 0;
#X connect 13 0 18 0;
#X connect 14 0 18 0;
#X connect 15 0 26 0;
#X connect 15 0 16 0;
#X connect 16 0 13 0;
#X connect 18 0 17 0;
#X connect 18 1 41 0;
#X connect 19 0 20 0;
#X connect 19 1 20 0;
#X connect 21 0 20 0;
#X connect 22 0 20 0;
#X connect 23 0 24 0;
#X connect 23 0 33 0;
#X connect 24 0 28 0;
#X connect 25 0 6 0;
#X connect 26 0 18 0;
#X connect 27 0 8 0;
#X connect 28 0 20 0;
#X connect 30 0 23 0;
#X connect 31 0 11 0;
#X connect 32 0 9 0;
#X connect 33 0 21 0;
#X connect 34 0 10 0;
#X connect 34 0 45 0;
#X connect 35 0 36 0;
#X connect 36 0 37 0;
#X connect 38 0 49 1;
#X connect 39 0 34 1;
#X connect 42 0 34 0;
#X connect 43 0 34 0;
#X connect 44 0 11 0;
#X connect 46 0 47 0;
#X connect 47 0 3 0;
#X connect 48 0 23 0;
#X connect 49 0 22 0;
#X connect 49 0 53 0;
#X connect 50 0 49 0;
#X connect 51 0 52 0;
#X connect 51 0 52 1;
#X connect 54 0 15 0;
#X restore 118 239 pd TONEFINDER;
#X obj 121 214 hsl 128 15 5000 30000 0 0 empty empty empty -2 -8 0
10 -262144 -1 -1 0 1;
#X text 116 166 5 to 30 second record time;
#X msg 117 106 \; pd dsp 1;
#X obj 118 189 loadbang;
#X connect 0 0 4 0;
#X connect 2 0 1 0;
#X connect 5 0 2 0;
